<svg xmlns="http://www.w3.org/2000/svg" width="120" height="120"><path d="M34.113 30.318 31.63 28.75l-.118-2.934-2.257 1.878-2.827-.794 1.089 2.727-1.63 2.444 2.931-.193 1.82 2.304.722-2.846zM87.975 85.879l.167 2.932-2.321 1.8 2.84.747.994 2.763 1.589-2.47 2.935-.092-1.858-2.274.82-2.82-2.738 1.065zM29.133 85.796l-.5 2.894-2.666 1.23 2.598 1.368.346 2.916 2.104-2.048 2.88.573-1.297-2.635 1.435-2.562-2.907.42zM94.066 27.678l-2.918.336-1.93-2.213-.582 2.878-2.702 1.152 2.558 1.443.26 2.925 2.164-1.986 2.862.656-1.22-2.671z" style="fill:#fff;fill-opacity:.1;stroke:#666;stroke-width:1.5;stroke-linecap:round;stroke-linejoin:round;stroke-dasharray:none;stroke-opacity:.2;paint-order:stroke fill markers"/></svg>