<?xml version="1.0" encoding="UTF-8" standalone="no"?>
<svg
   viewBox="0 0 48 48"
   version="1.1"
   id="svg5"
   width="48"
   height="48"
   xmlns="http://www.w3.org/2000/svg"
   xmlns:svg="http://www.w3.org/2000/svg">
  <defs
     id="defs5" />
  <path
     fill="#EA596E"
     d="M 38.757999,39.809999 H 21.424666 c -0.736,0 -1.333333,-0.596 -1.333333,-1.333333 0,-0.737334 0.597333,-1.333334 1.333333,-1.333334 h 17.333333 c 3.389333,0 5.333333,-1.822666 5.333333,-4.999999 0,-2.049334 -2.190666,-4.333334 -5.333333,-4.333334 h -9.333333 c -0.737333,0 -1.333333,-0.596 -1.333333,-1.333333 0,-0.737333 0.596,-1.333333 1.333333,-1.333333 h 9.333333 c 4.785333,0 8,3.62 8,7 0,4.657333 -3.14,7.666666 -8,7.666666 z"
     id="path1"
     style="fill:#e6919e;fill-opacity:1;stroke-width:1" />
  <path
     fill="#CCD6DD"
     d="m 14.758,27.432666 c 0,-3.8 4,-9.38 0,-9.38 -5.3333336,0 -13.516,8.754667 -13.516,11.256 0,2.501333 8.5879999,2.501333 12.386666,2.501333 3.798667,0 1.129334,-0.578666 1.129334,-4.377333 z"
     id="path2"
     style="fill:#f1d7f1;fill-opacity:1;stroke-width:1" />
  <path
     fill="#CCD6DD"
     d="m 42.757999,23.679333 c 0,-10.630667 -8.738667,-13.002666 -15.174666,-11.716 -12.506667,2.501333 -14.842667,8.589333 -14.842667,13.592 0,6.562666 12.198667,6.253333 18.761333,6.253333 6.562667,0 11.256,-1.565333 11.256,-8.129333 z"
     id="path3"
     style="fill:#f1d7f1;fill-opacity:1;stroke-width:1" />
  <path
     fill="#CCD6DD"
     d="m 32.091333,21.804666 -22.8079998,2.5 4.7079998,7.505333 h 18.1 z m -10.776,-7.137333 c 0,-3.577333 -2.662667,-6.4773328 -5.944,-6.4773328 -3.284,0.00133 -5.9466664,2.8999998 -5.9466664,6.4773328 0,3.577333 2.6626664,6.476 5.9466664,6.476 3.281333,0 5.944,-2.898667 5.944,-6.476 z"
     id="path4"
     style="fill:#f1d7f1;fill-opacity:1;stroke-width:1" />
  <path
     fill="#F4ABBA"
     d="m 17.918,15.387333 c 0,2.384 -1.521334,4.318667 -3.397334,4.318667 -1.877333,0 -3.397333,-1.934667 -3.397333,-4.318667 0,-2.384 1.52,-4.317333 3.397333,-4.317333 1.876,-0.0013 3.397334,1.931999 3.397334,4.317333 z"
     id="path5"
     style="fill:#edaeba;fill-opacity:1;stroke-width:1" />
  <ellipse
     fill="#DD2E44"
     cx="19.824005"
     cy="17.954569"
     id="circle5"
     style="fill:#d16cdb;fill-opacity:1;stroke-width:0.999996"
     rx="1.5833117"
     ry="1.9018058"
     transform="matrix(0.90893963,0.41692775,-0.41825261,0.90833075,0,0)" />
</svg>
