<svg xmlns="http://www.w3.org/2000/svg" width="48" height="48" viewBox="0 0 48 48"><path fill="#ea596e" d="M38.758 39.81H21.425a1.333 1.333 0 1 1 0-2.667h17.333c3.39 0 5.333-1.822 5.333-5 0-2.049-2.19-4.333-5.333-4.333h-9.333a1.332 1.332 0 1 1 0-2.667h9.333c4.785 0 8 3.62 8 7 0 4.658-3.14 7.667-8 7.667" style="fill:#e6919e;fill-opacity:1;stroke-width:1"/><path fill="#ccd6dd" d="M14.758 27.433c0-3.8 4-9.38 0-9.38-5.333 0-13.516 8.754-13.516 11.256 0 2.501 8.588 2.501 12.387 2.501 3.798 0 1.129-.579 1.129-4.377" style="fill:#f1d7f1;fill-opacity:1;stroke-width:1"/><path fill="#ccd6dd" d="M42.758 23.68c0-10.631-8.739-13.003-15.175-11.717-12.506 2.502-14.842 8.59-14.842 13.592 0 6.563 12.198 6.254 18.761 6.254s11.256-1.566 11.256-8.13" style="fill:#f1d7f1;fill-opacity:1;stroke-width:1"/><path fill="#ccd6dd" d="m32.091 21.805-22.808 2.5 4.708 7.505h18.1zm-10.776-7.138c0-3.577-2.662-6.477-5.944-6.477-3.284.001-5.946 2.9-5.946 6.477s2.662 6.476 5.946 6.476c3.282 0 5.944-2.898 5.944-6.476" style="fill:#f1d7f1;fill-opacity:1;stroke-width:1"/><path fill="#f4abba" d="M17.918 15.387c0 2.384-1.521 4.319-3.397 4.319-1.878 0-3.398-1.935-3.398-4.319s1.52-4.317 3.398-4.317c1.876-.001 3.397 1.932 3.397 4.317" style="fill:#edaeba;fill-opacity:1;stroke-width:1"/><ellipse cx="19.824" cy="17.955" fill="#dd2e44" rx="1.583" ry="1.902" style="fill:#d16cdb;fill-opacity:1;stroke-width:.999996" transform="rotate(24.64)skewX(-.084)"/></svg>